<svg xmlns="http://www.w3.org/2000/svg" width="256" height="256" viewBox="0 0 256 256" role="img" aria-labelledby="title desc">
  <title id="title">CertAnvil 01-anvil-quiz</title>
  <desc id="desc">Transparent CertAnvil-style SVG icon in orange, cream, and dark ink.</desc>
  <defs>
    <linearGradient id="ca-orange" x1="0" x2="1" y1="0" y2="1">
      <stop offset="0" stop-color="#E17A1A"/>
      <stop offset="1" stop-color="#C65300"/>
    </linearGradient>
    <linearGradient id="ca-cream" x1="0" x2="1" y1="0" y2="1">
      <stop offset="0" stop-color="#FFFDF8"/>
      <stop offset="1" stop-color="#FFF7EC"/>
    </linearGradient>
    <filter id="ca-shadow" x="-20%" y="-20%" width="140%" height="140%">
      <feDropShadow dx="0" dy="4" stdDeviation="5" flood-color="#141827" flood-opacity="0.10"/>
    </filter>
    <style>
      .line { fill:none; stroke:#2B333B; stroke-width:8; stroke-linecap:round; stroke-linejoin:round; }
      .line-sm { fill:none; stroke:#2B333B; stroke-width:6; stroke-linecap:round; stroke-linejoin:round; }
      .line-xs { fill:none; stroke:#2B333B; stroke-width:4; stroke-linecap:round; stroke-linejoin:round; }
      .muted { stroke:#D9D0C4; }
      .orange { stroke:#C65300; }
      .fill-cream { fill:url(#ca-cream); }
      .fill-soft { fill:#F8F1E8; }
      .fill-orange { fill:url(#ca-orange); }
      .fill-ink { fill:#141827; }
      .text { font-family: Inter, ui-sans-serif, system-ui, -apple-system, BlinkMacSystemFont, 'Segoe UI', sans-serif; font-weight:800; }
    </style>
  </defs>

  <g filter="url(#ca-shadow)">
    <path class="fill-ink" d="M48 78h112c12 0 22 10 22 22v46c0 12-10 22-22 22h-30l-21 25-5-25H48c-12 0-22-10-22-22v-46c0-12 10-22 22-22z"/>
    <path class="line-sm" stroke="#FFF7EC" d="M74 118h56M74 144h36"/>
    <path class="fill-orange" d="M151 111h38c8 0 15 7 15 15v9c0 8-7 15-15 15h-38v-39z"/>
    <path class="line-sm" stroke="#FFF7EC" d="M161 130h29"/>
    <path class="line" d="M64 74c6-17 22-29 41-29h40"/>
    <path class="line" d="M131 45h37c8 0 14 6 14 14v11"/>
  </g>

</svg>
