<svg xmlns="http://www.w3.org/2000/svg" width="256" height="256" viewBox="0 0 256 256" role="img" aria-labelledby="title desc">
  <title id="title">CertAnvil 02-cross-cert-path</title>
  <desc id="desc">Transparent CertAnvil-style SVG icon in orange, cream, and dark ink.</desc>
  <defs>
    <linearGradient id="ca-orange" x1="0" x2="1" y1="0" y2="1">
      <stop offset="0" stop-color="#E17A1A"/>
      <stop offset="1" stop-color="#C65300"/>
    </linearGradient>
    <linearGradient id="ca-cream" x1="0" x2="1" y1="0" y2="1">
      <stop offset="0" stop-color="#FFFDF8"/>
      <stop offset="1" stop-color="#FFF7EC"/>
    </linearGradient>
    <filter id="ca-shadow" x="-20%" y="-20%" width="140%" height="140%">
      <feDropShadow dx="0" dy="4" stdDeviation="5" flood-color="#141827" flood-opacity="0.10"/>
    </filter>
    <style>
      .line { fill:none; stroke:#2B333B; stroke-width:8; stroke-linecap:round; stroke-linejoin:round; }
      .line-sm { fill:none; stroke:#2B333B; stroke-width:6; stroke-linecap:round; stroke-linejoin:round; }
      .line-xs { fill:none; stroke:#2B333B; stroke-width:4; stroke-linecap:round; stroke-linejoin:round; }
      .muted { stroke:#D9D0C4; }
      .orange { stroke:#C65300; }
      .fill-cream { fill:url(#ca-cream); }
      .fill-soft { fill:#F8F1E8; }
      .fill-orange { fill:url(#ca-orange); }
      .fill-ink { fill:#141827; }
      .text { font-family: Inter, ui-sans-serif, system-ui, -apple-system, BlinkMacSystemFont, 'Segoe UI', sans-serif; font-weight:800; }
    </style>
  </defs>

  <g filter="url(#ca-shadow)">
    <path class="line" d="M46 170c14-48 45-83 88-104 24-12 49-18 76-20"/>
    <path class="line-xs muted" stroke-dasharray="7 10" d="M54 196c34-21 69-31 105-31 20 0 38 4 55 12"/>
    <circle class="fill-cream line-sm" cx="55" cy="172" r="18"/>
    <circle class="fill-orange line-sm" cx="117" cy="106" r="18"/>
    <circle class="fill-cream line-sm" cx="182" cy="64" r="18"/>
    <circle class="fill-orange line-sm" cx="215" cy="178" r="18"/>
    <path class="line-sm" d="M189 176h52M229 164l12 12-12 12"/>
  </g>

</svg>
