<svg xmlns="http://www.w3.org/2000/svg" width="256" height="256" viewBox="0 0 256 256" role="img" aria-labelledby="title desc">
  <title id="title">CertAnvil 09-cloud-sync</title>
  <desc id="desc">Transparent CertAnvil-style SVG icon in orange, cream, and dark ink.</desc>
  <defs>
    <linearGradient id="ca-orange" x1="0" x2="1" y1="0" y2="1">
      <stop offset="0" stop-color="#E17A1A"/>
      <stop offset="1" stop-color="#C65300"/>
    </linearGradient>
    <linearGradient id="ca-cream" x1="0" x2="1" y1="0" y2="1">
      <stop offset="0" stop-color="#FFFDF8"/>
      <stop offset="1" stop-color="#FFF7EC"/>
    </linearGradient>
    <filter id="ca-shadow" x="-20%" y="-20%" width="140%" height="140%">
      <feDropShadow dx="0" dy="4" stdDeviation="5" flood-color="#141827" flood-opacity="0.10"/>
    </filter>
    <style>
      .line { fill:none; stroke:#2B333B; stroke-width:8; stroke-linecap:round; stroke-linejoin:round; }
      .line-sm { fill:none; stroke:#2B333B; stroke-width:6; stroke-linecap:round; stroke-linejoin:round; }
      .line-xs { fill:none; stroke:#2B333B; stroke-width:4; stroke-linecap:round; stroke-linejoin:round; }
      .muted { stroke:#D9D0C4; }
      .orange { stroke:#C65300; }
      .fill-cream { fill:url(#ca-cream); }
      .fill-soft { fill:#F8F1E8; }
      .fill-orange { fill:url(#ca-orange); }
      .fill-ink { fill:#141827; }
      .text { font-family: Inter, ui-sans-serif, system-ui, -apple-system, BlinkMacSystemFont, 'Segoe UI', sans-serif; font-weight:800; }
    </style>
  </defs>

  <g filter="url(#ca-shadow)">
    <path class="fill-cream line" d="M83 177h96c24 0 43-19 43-42 0-22-17-40-38-42-8-28-31-49-62-49-34 0-62 26-65 59-20 4-35 20-35 39 0 20 17 35 61 35z"/>
    <path class="line-sm orange" d="M103 111h51M139 96l15 15-15 15"/>
    <path class="line-sm" d="M154 146h-51M118 131l-15 15 15 15"/>
  </g>

</svg>
