<svg xmlns="http://www.w3.org/2000/svg" width="256" height="256" viewBox="0 0 256 256" role="img" aria-labelledby="title desc">
  <title id="title">CertAnvil 11-ai-review</title>
  <desc id="desc">Transparent CertAnvil-style SVG icon in orange, cream, and dark ink.</desc>
  <defs>
    <linearGradient id="ca-orange" x1="0" x2="1" y1="0" y2="1">
      <stop offset="0" stop-color="#E17A1A"/>
      <stop offset="1" stop-color="#C65300"/>
    </linearGradient>
    <linearGradient id="ca-cream" x1="0" x2="1" y1="0" y2="1">
      <stop offset="0" stop-color="#FFFDF8"/>
      <stop offset="1" stop-color="#FFF7EC"/>
    </linearGradient>
    <filter id="ca-shadow" x="-20%" y="-20%" width="140%" height="140%">
      <feDropShadow dx="0" dy="4" stdDeviation="5" flood-color="#141827" flood-opacity="0.10"/>
    </filter>
    <style>
      .line { fill:none; stroke:#2B333B; stroke-width:8; stroke-linecap:round; stroke-linejoin:round; }
      .line-sm { fill:none; stroke:#2B333B; stroke-width:6; stroke-linecap:round; stroke-linejoin:round; }
      .line-xs { fill:none; stroke:#2B333B; stroke-width:4; stroke-linecap:round; stroke-linejoin:round; }
      .muted { stroke:#D9D0C4; }
      .orange { stroke:#C65300; }
      .fill-cream { fill:url(#ca-cream); }
      .fill-soft { fill:#F8F1E8; }
      .fill-orange { fill:url(#ca-orange); }
      .fill-ink { fill:#141827; }
      .text { font-family: Inter, ui-sans-serif, system-ui, -apple-system, BlinkMacSystemFont, 'Segoe UI', sans-serif; font-weight:800; }
    </style>
  </defs>

  <g filter="url(#ca-shadow)">
    <path class="fill-cream line" d="M74 177c-21-5-36-25-32-48 3-18 16-32 32-37 4-29 28-51 58-51 33 0 59 26 59 59 16 7 27 22 27 40 0 24-20 43-44 43h-4"/>
    <path class="line-sm" d="M92 176v-39M164 176v-39M92 137c0-20 16-36 36-36s36 16 36 36"/>
    <path class="line-sm orange" d="M108 137l16 16 35-41"/>
    <circle class="fill-orange" cx="74" cy="117" r="7"/>
    <circle class="fill-orange" cx="182" cy="117" r="7"/>
  </g>

</svg>
