<svg xmlns="http://www.w3.org/2000/svg" width="256" height="256" viewBox="0 0 256 256" role="img" aria-labelledby="title desc">
  <title id="title">CertAnvil 12-browser-lab</title>
  <desc id="desc">Transparent CertAnvil-style SVG icon in orange, cream, and dark ink.</desc>
  <defs>
    <linearGradient id="ca-orange" x1="0" x2="1" y1="0" y2="1">
      <stop offset="0" stop-color="#E17A1A"/>
      <stop offset="1" stop-color="#C65300"/>
    </linearGradient>
    <linearGradient id="ca-cream" x1="0" x2="1" y1="0" y2="1">
      <stop offset="0" stop-color="#FFFDF8"/>
      <stop offset="1" stop-color="#FFF7EC"/>
    </linearGradient>
    <filter id="ca-shadow" x="-20%" y="-20%" width="140%" height="140%">
      <feDropShadow dx="0" dy="4" stdDeviation="5" flood-color="#141827" flood-opacity="0.10"/>
    </filter>
    <style>
      .line { fill:none; stroke:#2B333B; stroke-width:8; stroke-linecap:round; stroke-linejoin:round; }
      .line-sm { fill:none; stroke:#2B333B; stroke-width:6; stroke-linecap:round; stroke-linejoin:round; }
      .line-xs { fill:none; stroke:#2B333B; stroke-width:4; stroke-linecap:round; stroke-linejoin:round; }
      .muted { stroke:#D9D0C4; }
      .orange { stroke:#C65300; }
      .fill-cream { fill:url(#ca-cream); }
      .fill-soft { fill:#F8F1E8; }
      .fill-orange { fill:url(#ca-orange); }
      .fill-ink { fill:#141827; }
      .text { font-family: Inter, ui-sans-serif, system-ui, -apple-system, BlinkMacSystemFont, 'Segoe UI', sans-serif; font-weight:800; }
    </style>
  </defs>

  <g filter="url(#ca-shadow)">
    <rect class="fill-ink line" x="34" y="58" width="188" height="140" rx="20"/>
    <path class="line-sm" stroke="#FFF7EC" d="M34 92h188"/>
    <circle class="fill-orange" cx="62" cy="75" r="7"/>
    <circle class="fill-soft" cx="86" cy="75" r="7"/>
    <path class="line-sm" stroke="#FFF7EC" d="M80 128h60M80 154h44"/>
    <path class="fill-orange" d="M160 126h28a12 12 0 0 1 12 12v34h-52v-34a12 12 0 0 1 12-12z"/>
    <path class="line-xs" stroke="#FFF7EC" d="M174 112v28M164 112h20"/>
  </g>

</svg>
