<svg xmlns="http://www.w3.org/2000/svg" viewBox="0 0 128 128" role="img" aria-label="Cloud region">
  <defs>
    <linearGradient id="caOrange" x1="22" y1="18" x2="106" y2="110" gradientUnits="userSpaceOnUse">
      <stop offset="0" stop-color="#E27822"/>
      <stop offset="1" stop-color="#C95500"/>
    </linearGradient>
    <filter id="softShadow" x="-20%" y="-20%" width="140%" height="140%">
      <feDropShadow dx="0" dy="3" stdDeviation="3" flood-color="#202932" flood-opacity=".10"/>
    </filter>
  </defs>

  <g fill="none" stroke="#202932" stroke-width="4" stroke-linecap="round" stroke-linejoin="round" filter="url(#softShadow)">
    <path d="M39 91H29c-10 0-18-8-18-18 0-9 7-17 16-19 4-16 18-27 35-27 20 0 36 16 37 35 11 2 19 11 19 22 0 3-.5 5-1 7" fill="#FFF8EE"/>
    <circle cx="64" cy="72" r="17"/>
    <path d="M64 55v34M47 72h34"/>
    <path d="M55 61c7 6 12 6 18 0M55 83c7-6 12-6 18 0" stroke="url(#caOrange)" stroke-width="5"/>
  </g>
</svg>
