<svg xmlns="http://www.w3.org/2000/svg" viewBox="0 0 128 128" role="img" aria-label="AI brain">
  <defs>
    <linearGradient id="caOrange" x1="22" y1="18" x2="106" y2="110" gradientUnits="userSpaceOnUse">
      <stop offset="0" stop-color="#E27822"/>
      <stop offset="1" stop-color="#C95500"/>
    </linearGradient>
    <filter id="softShadow" x="-20%" y="-20%" width="140%" height="140%">
      <feDropShadow dx="0" dy="3" stdDeviation="3" flood-color="#202932" flood-opacity=".10"/>
    </filter>
  </defs>

  <g fill="none" stroke="#202932" stroke-width="4" stroke-linecap="round" stroke-linejoin="round" filter="url(#softShadow)">
    <path d="M50 97c-14 0-25-11-25-25 0-9 5-17 12-21-1-15 10-27 25-27 9 0 17 5 21 12 12 1 21 11 21 23 0 7-3 13-8 17 1 12-8 21-20 21z" fill="#FFF8EE"/>
    <path d="M50 48c9 4 16 10 20 20M47 73c9-4 17-4 27 0M75 41c-5 10-5 19 0 29"/>
    <circle cx="85" cy="86" r="8" fill="url(#caOrange)" stroke="#C95500"/>
  </g>
</svg>
