<svg xmlns="http://www.w3.org/2000/svg" viewBox="0 0 128 128" role="img" aria-label="Question generator">
  <defs>
    <linearGradient id="caOrange" x1="22" y1="18" x2="106" y2="110" gradientUnits="userSpaceOnUse">
      <stop offset="0" stop-color="#E27822"/>
      <stop offset="1" stop-color="#C95500"/>
    </linearGradient>
    <filter id="softShadow" x="-20%" y="-20%" width="140%" height="140%">
      <feDropShadow dx="0" dy="3" stdDeviation="3" flood-color="#202932" flood-opacity=".10"/>
    </filter>
  </defs>

  <g fill="none" stroke="#202932" stroke-width="4" stroke-linecap="round" stroke-linejoin="round" filter="url(#softShadow)">
    <path d="M31 29h66c8 0 14 6 14 14v35c0 8-6 14-14 14H66l-25 17V92H31c-8 0-14-6-14-14V43c0-8 6-14 14-14z" fill="#FFF8EE"/>
    <path d="M52 54c1-7 6-12 15-12 8 0 14 5 14 13 0 11-14 11-14 23"/>
    <circle cx="67" cy="88" r="2.5" fill="#C95500" stroke="#C95500"/>
    <path d="M91 46l5-9 5 9 9 5-9 5-5 9-5-9-9-5z" fill="url(#caOrange)" stroke="#C95500"/>
  </g>
</svg>
