<svg xmlns="http://www.w3.org/2000/svg" viewBox="0 0 128 128" role="img" aria-label="Support promise">
  <defs>
    <linearGradient id="caOrange" x1="22" y1="18" x2="106" y2="110" gradientUnits="userSpaceOnUse">
      <stop offset="0" stop-color="#E27822"/>
      <stop offset="1" stop-color="#C95500"/>
    </linearGradient>
    <filter id="softShadow" x="-20%" y="-20%" width="140%" height="140%">
      <feDropShadow dx="0" dy="3" stdDeviation="3" flood-color="#202932" flood-opacity=".10"/>
    </filter>
  </defs>

  <g fill="none" stroke="#202932" stroke-width="4" stroke-linecap="round" stroke-linejoin="round" filter="url(#softShadow)">
    <path d="M45 71c8-10 17-10 26 0l7 7c5 5 13 5 18 0l8-8-26-26-10 10c-5 5-13 5-18 0l-3-3-23 23 21 21c6 6 16 6 22 0l4-4" fill="#FFF8EE"/>
    <path d="M24 74L12 62l24-24 11 13"/>
    <path d="M104 70l12-12-24-24-14 10"/>
    <path d="M50 84l10 10 22-28" stroke="url(#caOrange)" stroke-width="6"/>
  </g>
</svg>
