<svg xmlns="http://www.w3.org/2000/svg" viewBox="0 0 256 128" fill="none">
  <g transform="translate(10 0) scale(.8)">
    <rect x="22" y="22" width="84" height="84" rx="18" fill="#FFF8EF" stroke="#E7DACE" stroke-width="3"/>
    <circle cx="64" cy="64" r="28" stroke="#111827" stroke-width="5"/>
    <circle cx="64" cy="64" r="10" stroke="#C95000" stroke-width="5"/>
    <path d="M64 28v12M64 88v12M28 64h12M88 64h12" stroke="#111827" stroke-width="5" stroke-linecap="round"/>
  </g>
  <g transform="translate(86 0) scale(.8)">
    <rect x="22" y="22" width="84" height="84" rx="18" fill="#FFF8EF" stroke="#E7DACE" stroke-width="3"/>
    <circle cx="46" cy="44" r="4" fill="#C95000"/><circle cx="46" cy="64" r="4" fill="#C95000"/><circle cx="46" cy="84" r="4" fill="#C95000"/>
    <path d="M58 44h28M58 64h28M58 84h28" stroke="#111827" stroke-width="5" stroke-linecap="round"/>
  </g>
  <g transform="translate(162 0) scale(.8)">
    <rect x="22" y="22" width="84" height="84" rx="18" fill="#FFF8EF" stroke="#E7DACE" stroke-width="3"/>
    <path d="M64 31l30 11v20c0 24-14 38-30 45C48 100 34 86 34 62V42l30-11Z" fill="white" stroke="#111827" stroke-width="5" stroke-linejoin="round"/>
    <path d="M50 66l10 10 20-24" stroke="#C95000" stroke-width="7" stroke-linecap="round" stroke-linejoin="round"/>
  </g>
</svg>