<svg xmlns="http://www.w3.org/2000/svg" viewBox="0 0 128 128" role="img" aria-labelledby="title desc">
<title id="title">FAQ question bubble</title>
<desc id="desc">CertAnvil brand SVG icon with transparent background.</desc>

<defs>
  <linearGradient id="orangeGrad" x1="20" y1="10" x2="110" y2="118" gradientUnits="userSpaceOnUse">
    <stop offset="0" stop-color="#F08A24"/>
    <stop offset="1" stop-color="#B94700"/>
  </linearGradient>
  <linearGradient id="creamGrad" x1="14" y1="6" x2="116" y2="126" gradientUnits="userSpaceOnUse">
    <stop offset="0" stop-color="#FFFDF8"/>
    <stop offset="1" stop-color="#F7EBDC"/>
  </linearGradient>
  <filter id="softShadow" x="-20%" y="-20%" width="140%" height="140%">
    <feDropShadow dx="0" dy="5" stdDeviation="5" flood-color="#172033" flood-opacity="0.08"/>
  </filter>
  <style>
    .ink{stroke:#172033;stroke-width:5.2;stroke-linecap:round;stroke-linejoin:round;fill:none}
    .ink-thin{stroke:#172033;stroke-width:3.5;stroke-linecap:round;stroke-linejoin:round;fill:none}
    .muted{stroke:#CFC3B6;stroke-width:4;stroke-linecap:round;stroke-linejoin:round;fill:none}
    .orange{stroke:#C95000;stroke-width:5.2;stroke-linecap:round;stroke-linejoin:round;fill:none}
    .orange-thin{stroke:#C95000;stroke-width:3.5;stroke-linecap:round;stroke-linejoin:round;fill:none}
    .fill-cream{fill:url(#creamGrad);stroke:#E7DDD0;stroke-width:2.2;stroke-linejoin:round}
    .fill-orange{fill:url(#orangeGrad)}
    .fill-ink{fill:#172033}
    .fill-soft{fill:#FFF7EC;stroke:#E7DDD0;stroke-width:2.2;stroke-linejoin:round}
  </style>
</defs>

<path class="fill-cream" filter="url(#softShadow)" d="M24 28h58c12 0 22 9 22 21v24c0 12-10 21-22 21H55l-20 16v-16H24C12 94 6 84 6 73V49c0-12 8-21 18-21Z"/>
<path class="ink" d="M53 51c2-8 18-9 22 0 5 11-11 13-11 23"/>
<circle class="fill-orange" cx="64" cy="86" r="4"/>
<path class="orange-thin" d="M92 38l4-4m3 13h7"/>

</svg>